<svg width="580" height="544" viewBox="0 0 580 544" fill="none" xmlns="http://www.w3.org/2000/svg">
<path fill-rule="evenodd" clip-rule="evenodd" d="M300.933 74.1555C337.443 87.0142 374.695 90.2403 410.371 105.258C453.246 123.306 501.695 134.14 530.396 170.746C562.055 211.125 592.538 266.77 574.731 314.888C556.402 364.417 489.686 371.968 445.325 400.629C414.687 420.424 385.008 437.592 354.312 457.296C309.063 486.343 275.822 546.639 222.12 543.91C170.141 541.269 142.24 481.739 105.717 444.664C66.5067 404.862 5.52679 374.37 0.302747 318.746C-4.93697 262.956 59.2907 226.731 80.3728 174.811C102.853 119.449 73.087 30.4223 127.451 5.61266C185.185 -20.7353 241.074 53.0731 300.933 74.1555Z" fill="#EBEBEB" fill-opacity="0.1"/>
<circle cx="191.5" cy="208.5" r="63.5" fill="url(#paint0_linear_73_2)"/>
<circle cx="427" cy="332" r="49" fill="url(#paint1_linear_73_2)"/>
<circle cx="253.5" cy="332.5" r="88.5" fill="url(#paint2_linear_73_2)"/>
<circle cx="378.5" cy="159.5" r="74.5" fill="url(#paint3_linear_73_2)"/>
<defs>
<linearGradient id="paint0_linear_73_2" x1="255" y1="289.825" x2="114.632" y2="189.561" gradientUnits="userSpaceOnUse">
<stop stop-color="#E3A0A0"/>
<stop offset="1" stop-color="#C4C4C4" stop-opacity="0"/>
</linearGradient>
<linearGradient id="paint1_linear_73_2" x1="476" y1="394.754" x2="367.684" y2="317.386" gradientUnits="userSpaceOnUse">
<stop stop-color="#E3CDA0"/>
<stop offset="1" stop-color="#C4C4C4" stop-opacity="0"/>
</linearGradient>
<linearGradient id="paint2_linear_73_2" x1="342" y1="445.842" x2="146.368" y2="306.105" gradientUnits="userSpaceOnUse">
<stop stop-color="#B6E3A0"/>
<stop offset="1" stop-color="#C4C4C4" stop-opacity="0"/>
</linearGradient>
<linearGradient id="paint3_linear_73_2" x1="453" y1="254.912" x2="288.316" y2="137.281" gradientUnits="userSpaceOnUse">
<stop stop-color="#D2A0E3"/>
<stop offset="1" stop-color="#C4C4C4" stop-opacity="0"/>
</linearGradient>
</defs>
</svg>
