<svg width="34" height="47" viewBox="0 0 34 47" fill="none" xmlns="http://www.w3.org/2000/svg">
<path d="M0 37.8943L0.281961 37.4963L13.6169 11.9859L13.645 11.7158L7.76687 0.58353C7.27414 -0.348971 5.88758 -0.113168 5.72608 0.930741L0 37.8943Z" fill="#FFC24A"/>
<path d="M17.9302 20.1365L22.3071 15.6172L17.9289 7.1907C17.5133 6.39304 16.353 6.39063 15.9418 7.1907L13.6025 11.6881V12.0711L17.9301 20.1365H17.9302Z" fill="#F4BD62"/>
<path d="M0 37.8943L0.127766 37.7646L0.592078 37.5745L17.6554 20.4349L17.8716 19.8416L13.615 11.6636L0 37.8943Z" fill="#F6820C"/>
<path d="M18.477 46.5382L33.9198 37.8549L29.5099 10.4724C29.3719 9.6157 28.3294 9.27706 27.7212 9.89127L0 37.8943L15.3542 46.5375C15.8314 46.8061 16.3689 46.9472 16.9155 46.9473C17.4621 46.9474 17.9996 46.8066 18.477 46.5382" fill="#FDE068"/>
<path d="M33.7815 37.7822L29.405 10.6076C29.2682 9.75731 28.4012 9.40554 27.7976 10.0152L0.171387 37.8411L15.357 46.3986C15.8306 46.6652 16.364 46.8052 16.9065 46.8053C17.4489 46.8055 17.9823 46.6657 18.4561 46.3994L33.7816 37.782L33.7815 37.7822Z" fill="#FCCA3F"/>
<path d="M18.477 46.2823C17.9996 46.5507 17.4621 46.6915 16.9156 46.6914C16.369 46.6913 15.8315 46.5502 15.3543 46.2816L0.12376 37.7627L0.000244141 37.8943L15.3543 46.5375C15.8315 46.8062 16.369 46.9472 16.9156 46.9474C17.4622 46.9475 17.9998 46.8066 18.4771 46.5382L33.9199 37.855L33.882 37.6204L18.4771 46.2824L18.477 46.2823Z" fill="#EEAB37"/>
</svg>
