<svg width="50" height="50" viewBox="0 0 50 50" fill="none" xmlns="http://www.w3.org/2000/svg">
<path d="M45.3281 7.85932L36.3187 3.52182C35.8099 3.27651 35.2374 3.19555 34.6806 3.29018C34.1237 3.38481 33.6101 3.65033 33.2109 4.04995L3.7187 30.9374C3.36088 31.2621 3.14668 31.7157 3.12324 32.1983C3.0998 32.6809 3.26903 33.153 3.5937 33.5109C3.63277 33.5531 3.67183 33.5937 3.71402 33.6312L6.12183 35.8187C6.43646 36.105 6.84145 36.2722 7.26646 36.291C7.69147 36.3098 8.10966 36.1792 8.44839 35.9218L43.9718 8.98432C44.2401 8.78071 44.56 8.65605 44.8953 8.62435C45.2306 8.59265 45.5681 8.65518 45.8699 8.8049C46.1716 8.95462 46.4255 9.18559 46.6031 9.47181C46.7807 9.75802 46.8748 10.0881 46.875 10.4249V10.3203C46.8749 9.80604 46.7297 9.30228 46.4561 8.86692C46.1824 8.43157 45.7914 8.08231 45.3281 7.85932V7.85932Z" fill="#0065A9"/>
<path d="M45.3281 42.1407L36.3187 46.4798C35.8098 46.7244 35.2374 46.805 34.6807 46.7104C34.124 46.6158 33.6105 46.3507 33.2109 45.9517L3.7187 19.0626C3.36088 18.7379 3.14668 18.2844 3.12324 17.8018C3.0998 17.3192 3.26903 16.847 3.5937 16.4892C3.63277 16.447 3.67183 16.4064 3.71402 16.3689L6.12183 14.1814C6.43678 13.8938 6.8427 13.7259 7.26876 13.7071C7.69482 13.6883 8.11397 13.8196 8.45308 14.0782L43.9718 41.0157C44.2401 41.2193 44.56 41.344 44.8953 41.3757C45.2306 41.4074 45.5681 41.3449 45.8699 41.1951C46.1716 41.0454 46.4255 40.8145 46.6031 40.5282C46.7807 40.242 46.8748 39.9119 46.875 39.5751V39.6876C46.8733 40.2005 46.7273 40.7025 46.4538 41.1363C46.1802 41.5701 45.7901 41.9182 45.3281 42.1407V42.1407Z" fill="#007ACC"/>
<path d="M36.3187 46.4798C35.8097 46.7244 35.2374 46.805 34.6807 46.7104C34.124 46.6158 33.6104 46.3507 33.2108 45.9517C33.4352 46.1731 33.72 46.3234 34.0294 46.3838C34.3388 46.4441 34.6592 46.4117 34.9503 46.2908C35.2415 46.1698 35.4904 45.9656 35.666 45.7038C35.8416 45.442 35.936 45.1341 35.9374 44.8189V5.18136C35.9377 4.86462 35.8439 4.55493 35.668 4.29152C35.4921 4.02811 35.242 3.82283 34.9494 3.70169C34.6567 3.58054 34.3347 3.54898 34.0241 3.61101C33.7135 3.67304 33.4283 3.82585 33.2046 4.05011C33.6038 3.65064 34.1174 3.3851 34.6741 3.2902C35.2309 3.19531 35.8034 3.27576 36.3124 3.52042L45.3202 7.85167C45.785 8.07354 46.1776 8.42232 46.4527 8.85776C46.7278 9.2932 46.8742 9.79755 46.8749 10.3126V39.6876C46.875 40.2023 46.7297 40.7065 46.4558 41.1421C46.1818 41.5778 45.7904 41.9272 45.3265 42.1501L36.3187 46.4798Z" fill="#1F9CF0"/>
</svg>
