<svg width="49" height="55" viewBox="0 0 49 55" fill="none" xmlns="http://www.w3.org/2000/svg">
<g clip-path="url(#clip0_201_102)">
<path d="M24.2759 0.0090332L48.5517 13.741V41.2139L24.2759 54.9459L0 41.2139V13.741L24.2759 0.0090332Z" fill="white"/>
<path d="M44.2187 40.2613L25.0821 51.0981V42.6704L37.0093 36.1023L44.2187 40.2613ZM45.5286 39.0795V16.4343L38.53 20.474V35.0395L45.5286 39.0795V39.0795ZM4.25966 40.2611L23.3964 51.0892V42.6613L11.4692 36.1023L4.25966 40.2613V40.2611ZM2.94971 39.0795V16.4343L9.94855 20.474V35.0395L2.94971 39.0795V39.0795ZM3.76522 14.9687L23.3964 3.86567V12.0189L10.8189 18.9351L10.718 18.9901L3.76522 14.9685V14.9687ZM44.7042 14.9687L25.0821 3.86548V12.0188L37.6505 18.944L37.7512 18.999L44.7042 14.9683V14.9687Z" fill="#8ED6FB"/>
<path d="M23.3964 40.7468L11.634 34.2701V21.4543L23.3964 28.2425V40.7468V40.7468ZM25.0821 40.7468L36.8445 34.2794V21.4543L25.0821 28.2425V40.7468V40.7468ZM12.4219 19.9703L24.2393 13.4753L36.0472 19.9703L24.2393 26.7859L12.4219 19.9703V19.9703Z" fill="#1C78C0"/>
</g>
<defs>
<clipPath id="clip0_201_102">
<rect width="48.5517" height="55" fill="white"/>
</clipPath>
</defs>
</svg>
