<svg width="40" height="40" viewBox="0 0 40 40" fill="none" xmlns="http://www.w3.org/2000/svg">
<path d="M3.68 27.52L2.97289 28.2271L2.97289 28.2271L3.68 27.52ZM3.68 3.488L4.36232 4.21905L4.37492 4.20729L4.38711 4.19511L3.68 3.488ZM15.52 4.064L15.0255 4.93316L15.0255 4.93316L15.52 4.064ZM18.4 7.008L17.521 7.48476L17.5258 7.49369L17.5308 7.50252L18.4 7.008ZM18.4 15.456L17.5345 14.9549L17.528 14.9665L18.4 15.456ZM15.52 18.304L16.0031 19.1796L16.0031 19.1796L15.52 18.304ZM6.528 19.328V18.328H5.528V19.328H6.528ZM6.048 27.52L5.34089 26.8129L5.32871 26.8251L5.31695 26.8377L6.048 27.52ZM6.528 16.256H5.528V17.256H6.528V16.256ZM13.856 15.616L13.3599 14.7478L13.3599 14.7478L13.856 15.616ZM15.616 13.856L16.4842 14.3521L16.4842 14.3521L15.616 13.856ZM15.616 8.608L14.7362 9.08355L14.7418 9.09364L15.616 8.608ZM6.528 6.08V5.08H5.528V6.08H6.528ZM4.864 27C4.6489 27 4.51194 26.9377 4.38711 26.8129L2.97289 28.2271C3.48806 28.7423 4.14043 29 4.864 29V27ZM4.38711 26.8129C4.26227 26.6881 4.2 26.5511 4.2 26.336H2.2C2.2 27.0596 2.45773 27.7119 2.97289 28.2271L4.38711 26.8129ZM4.2 26.336V4.672H2.2V26.336H4.2ZM4.2 4.672C4.2 4.42147 4.27053 4.30472 4.36232 4.21905L2.99768 2.75694C2.44947 3.26861 2.2 3.94119 2.2 4.672H4.2ZM4.38711 4.19511C4.51194 4.07027 4.6489 4.008 4.864 4.008V2.008C4.14043 2.008 3.48806 2.26573 2.97289 2.78089L4.38711 4.19511ZM4.864 4.008H11.264V2.008H4.864V4.008ZM11.264 4.008C12.7125 4.008 13.9568 4.32513 15.0255 4.93316L16.0145 3.19484C14.6085 2.39487 13.0155 2.008 11.264 2.008V4.008ZM15.0255 4.93316C16.0995 5.54426 16.9268 6.38922 17.521 7.48476L19.279 6.53124C18.5079 5.10945 17.4151 3.99174 16.0145 3.19484L15.0255 4.93316ZM17.5308 7.50252C18.1378 8.56922 18.456 9.8236 18.456 11.296H20.456C20.456 9.52573 20.0703 7.92144 19.2692 6.51348L17.5308 7.50252ZM18.456 11.296C18.456 12.6969 18.1411 13.9073 17.5346 14.955L19.2654 15.957C20.0669 14.5727 20.456 13.0097 20.456 11.296H18.456ZM17.528 14.9665C16.9378 16.0178 16.1135 16.8344 15.0369 17.4284L16.0031 19.1796C17.4012 18.4082 18.4969 17.3262 19.272 15.9455L17.528 14.9665ZM15.0369 17.4284C13.9662 18.0192 12.7177 18.328 11.264 18.328V20.328C13.0103 20.328 14.5992 19.9542 16.0031 19.1796L15.0369 17.4284ZM11.264 18.328H6.528V20.328H11.264V18.328ZM5.528 19.328V26.336H7.528V19.328H5.528ZM5.528 26.336C5.528 26.5511 5.46573 26.6881 5.34089 26.8129L6.75511 28.2271C7.27027 27.7119 7.528 27.0596 7.528 26.336H5.528ZM5.31695 26.8377C5.23128 26.9295 5.11453 27 4.864 27V29C5.59481 29 6.26739 28.7505 6.77906 28.2023L5.31695 26.8377ZM6.528 17.256H11.264V15.256H6.528V17.256ZM11.264 17.256C12.3944 17.256 13.4341 17.0088 14.3521 16.4842L13.3599 14.7478C12.7846 15.0765 12.0962 15.256 11.264 15.256V17.256ZM14.3521 16.4842C15.2538 15.969 15.969 15.2538 16.4842 14.3521L14.7478 13.3599C14.4097 13.9515 13.9515 14.4097 13.3599 14.7478L14.3521 16.4842ZM16.4842 14.3521C17.007 13.4374 17.256 12.4093 17.256 11.296H15.256C15.256 12.1027 15.0784 12.7813 14.7478 13.3599L16.4842 14.3521ZM17.256 11.296C17.256 10.1304 17.0121 9.06185 16.4902 8.12236L14.7418 9.09364C15.0732 9.69015 15.256 10.4136 15.256 11.296H17.256ZM16.4957 8.13248C15.9865 7.19041 15.2758 6.43768 14.3705 5.89451L13.3415 7.60949C13.9296 7.96232 14.3922 8.44692 14.7363 9.08352L16.4957 8.13248ZM14.3705 5.89451C13.4494 5.34184 12.403 5.08 11.264 5.08V7.08C12.0876 7.08 12.7693 7.26616 13.3415 7.60949L14.3705 5.89451ZM11.264 5.08H6.528V7.08H11.264V5.08ZM5.528 6.08V16.256H7.528V6.08H5.528Z" fill="url(#paint0_linear_259_11)"/>
<path d="M35.136 12C35.6053 12 36 12.16 36.32 12.48C36.64 12.8 36.8 13.1947 36.8 13.664L36.8 35.328C36.8 35.8187 36.64 36.2133 36.32 36.512C36 36.832 35.6053 36.992 35.136 36.992L28.736 36.992C27.136 36.992 25.7173 36.64 24.48 35.936C23.2427 35.232 22.2827 34.2507 21.6 32.992C20.896 31.7547 20.544 30.3253 20.544 28.704C20.544 27.1467 20.896 25.76 21.6 24.544C22.2827 23.328 23.2427 22.3787 24.48 21.696C25.7173 21.0133 27.136 20.672 28.736 20.672L33.472 20.672L33.472 13.664C33.472 13.1947 33.632 12.8 33.952 12.48C34.2507 12.16 34.6453 12 35.136 12ZM33.472 23.744L28.736 23.744C27.7547 23.744 26.8907 23.9573 26.144 24.384C25.3973 24.8107 24.8107 25.3973 24.384 26.144C23.9573 26.8907 23.744 27.744 23.744 28.704C23.744 29.728 23.9573 30.624 24.384 31.392C24.8107 32.1813 25.3973 32.8 26.144 33.248C26.8907 33.696 27.7547 33.92 28.736 33.92L33.472 33.92L33.472 23.744Z" fill="url(#paint1_linear_259_11)"/>
<defs>
<linearGradient id="paint0_linear_259_11" x1="2.81553" y1="-1.54075e-07" x2="10.0786" y2="28.4798" gradientUnits="userSpaceOnUse">
<stop/>
<stop offset="0.96448" stop-color="#959595" stop-opacity="0.59"/>
</linearGradient>
<linearGradient id="paint1_linear_259_11" x1="26.6019" y1="11.1803" x2="40.3007" y2="43.8082" gradientUnits="userSpaceOnUse">
<stop stop-color="#DBDBDB"/>
<stop offset="1"/>
</linearGradient>
</defs>
</svg>
