<svg width="70" height="61" viewBox="0 0 70 61" fill="none" xmlns="http://www.w3.org/2000/svg">
<path d="M49.1768 13.2753C48.7085 13.1073 48.2363 12.9515 47.7605 12.8083C47.8404 12.4667 47.914 12.1291 47.9793 11.7975C49.0515 6.35227 48.3506 1.96545 45.9565 0.5211C43.6611 -0.863549 39.9072 0.580263 36.116 4.03236C35.7423 4.37318 35.377 4.72383 35.0203 5.08397C34.7815 4.84449 34.5385 4.60966 34.2914 4.3796C30.318 0.688517 26.3353 -0.867145 23.9438 0.581342C21.6505 1.97031 20.9714 6.09422 21.9366 11.2548C22.0327 11.7659 22.1411 12.2744 22.2618 12.7797C21.6981 12.9473 21.1541 13.1257 20.6335 13.3156C15.975 15.015 13 17.678 13 20.4403C13 23.2932 16.1938 26.1547 21.0458 27.8899C21.4392 28.03 21.8358 28.1598 22.2354 28.2792C22.1056 28.8235 21.9904 29.3714 21.8899 29.9224C20.9697 34.9935 21.6883 39.0199 23.9754 40.4001C26.3377 41.8254 30.3025 40.3605 34.163 36.8297C34.476 36.5426 34.7822 36.2474 35.0811 35.9444C35.4674 36.3343 35.864 36.713 36.2705 37.0798C40.0102 40.4465 43.7034 41.8059 45.9883 40.422C48.3483 38.9926 49.1154 34.6671 48.1196 29.4045C48.0411 28.9922 47.9531 28.582 47.8557 28.1742C48.1342 28.0878 48.4075 27.999 48.6739 27.9066C53.718 26.1582 57 23.3313 57 20.4403C57 17.6679 53.9289 14.9869 49.1768 13.2753V13.2753ZM48.0828 26.04C47.8422 26.1233 47.5953 26.2036 47.3437 26.2819C46.7868 24.4374 46.0354 22.4762 45.1157 20.4498C45.9933 18.4717 46.7159 16.5356 47.2571 14.7031C47.7072 14.8395 48.144 14.9831 48.5651 15.1347C52.6368 16.6014 55.1204 18.7695 55.1204 20.4403C55.1204 22.2198 52.4381 24.53 48.0828 26.04V26.04ZM46.2757 29.7865C46.716 32.1134 46.7788 34.2173 46.4871 35.8622C46.2252 37.3402 45.6982 38.3254 45.0464 38.7202C43.6599 39.5599 40.6946 38.4684 37.4965 35.5891C37.1184 35.248 36.7495 34.896 36.3901 34.5335C37.63 33.1148 38.8691 31.4657 40.0784 29.634C42.2055 29.4365 44.2151 29.1136 46.0375 28.6728C46.1253 29.042 46.2047 29.4133 46.2757 29.7865V29.7865ZM28.0006 38.575C26.6458 39.0755 25.5668 39.0899 24.9145 38.6964C23.5267 37.859 22.9497 34.6259 23.7367 30.2893C23.8302 29.7768 23.9374 29.2672 24.0579 28.7609C25.8602 29.1781 27.8552 29.4781 29.9873 29.659C31.2048 31.4513 32.4796 33.0987 33.7644 34.5412C33.4914 34.8176 33.2119 35.087 32.9262 35.349C31.2189 36.9102 29.5083 38.0179 28.0006 38.575V38.575ZM21.6539 26.029C19.5084 25.2617 17.7365 24.2646 16.5221 23.1765C15.4307 22.1988 14.8798 21.2279 14.8798 20.4403C14.8798 18.7639 17.2683 16.6258 21.2522 15.1727C21.7357 14.9964 22.2417 14.8301 22.7668 14.674C23.3175 16.5478 24.0397 18.507 24.9113 20.4881C24.0284 22.4985 23.2958 24.489 22.7398 26.3849C22.3751 26.2756 22.013 26.157 21.6539 26.029V26.029ZM23.7814 10.877C22.9545 6.45567 23.5036 3.12046 24.8857 2.28338C26.3576 1.39181 29.6126 2.66299 33.0434 5.8502C33.2671 6.05851 33.4872 6.27103 33.7035 6.48768C32.4251 7.92394 31.162 9.55908 29.9553 11.3408C27.8859 11.5415 25.9051 11.8637 24.0839 12.2955C23.9717 11.8254 23.8708 11.3525 23.7814 10.8772V10.877ZM42.761 15.7805C42.3309 15.0031 41.8847 14.2355 41.423 13.4782C42.8268 13.6639 44.1719 13.9105 45.435 14.2119C45.0559 15.4836 44.5832 16.813 44.0269 18.1761C43.6202 17.3688 43.1982 16.5701 42.761 15.7805V15.7805ZM35.0211 7.89319C35.8881 8.87593 36.7564 9.97304 37.6104 11.1635C35.8779 11.0779 34.1425 11.0775 32.41 11.1624C33.2649 9.98293 34.1406 8.88726 35.0211 7.89319ZM27.2316 15.794C26.7999 16.5772 26.3857 17.371 25.9895 18.1745C25.4422 16.8163 24.9738 15.4807 24.5914 14.191C25.8468 13.8972 27.1855 13.6569 28.5805 13.4746C28.1136 14.2365 27.6638 15.0098 27.2316 15.7938V15.794ZM28.6205 27.5459C27.1793 27.3775 25.8205 27.1497 24.5655 26.8638C24.9539 25.5511 25.4326 24.1871 25.9917 22.7997C26.3895 23.6039 26.8054 24.3981 27.239 25.1817C27.6848 25.9873 28.1465 26.7764 28.6205 27.5459ZM35.073 33.1258C34.182 32.1202 33.2935 31.0077 32.4257 29.8111C33.2682 29.8456 34.127 29.8633 35 29.8633C35.8968 29.8633 36.7834 29.8422 37.656 29.8016C36.7992 31.0197 35.9341 32.1339 35.073 33.1258ZM44.0446 22.7289C44.6327 24.1315 45.1284 25.4883 45.522 26.7785C44.2464 27.0832 42.869 27.3284 41.4176 27.5106C41.8827 26.7393 42.333 25.9583 42.7684 25.1682C43.211 24.3651 43.6365 23.5518 44.0446 22.7289V22.7289ZM41.1402 24.1857C40.4737 25.397 39.7698 26.5854 39.0294 27.7489C37.6884 27.8483 36.3444 27.8976 35 27.8969C33.6307 27.8969 32.2988 27.8523 31.0163 27.7652C30.2566 26.6044 29.5392 25.414 28.8656 24.1964H28.8658C28.1953 22.9853 27.5691 21.748 26.9884 20.4872C27.5676 19.2261 28.192 17.9882 28.8601 16.7762L28.8599 16.7763C29.5278 15.564 30.2395 14.3786 30.9934 13.2228C32.3019 13.1192 33.6437 13.0653 34.9998 13.0653H35C36.3623 13.0653 37.7058 13.1198 39.014 13.2241C39.7603 14.3782 40.4674 15.5595 41.134 16.7657C41.8044 17.9751 42.437 19.2069 43.0309 20.4593C42.4431 21.7245 41.8125 22.9674 41.1402 24.1857V24.1857ZM45.0177 2.22476C46.491 3.11381 47.0641 6.69897 46.1384 11.4005C46.0792 11.7004 46.0129 12.006 45.9407 12.3158C44.115 11.8749 42.1328 11.547 40.0574 11.3433C38.8485 9.542 37.5957 7.90434 36.338 6.4866C36.6676 6.1542 37.0051 5.83041 37.35 5.51555C40.5985 2.55797 43.6345 1.39019 45.0177 2.22476V2.22476ZM35 16.3295C37.1699 16.3295 38.9291 18.17 38.9291 20.4403C38.9291 22.7106 37.1699 24.5511 35 24.5511C32.8301 24.5511 31.0709 22.7106 31.0709 20.4403C31.0709 18.17 32.8301 16.3295 35 16.3295V16.3295Z" fill="#00D8FF"/>
<path d="M1.848 53.951C2.024 53.6063 2.27333 53.3387 2.596 53.148C2.926 52.9573 3.32567 52.862 3.795 52.862V53.896H3.531C2.409 53.896 1.848 54.5047 1.848 55.722V59H0.847V52.972H1.848V53.951ZM10.7255 55.755C10.7255 55.9457 10.7145 56.1473 10.6925 56.36H5.87452C5.91118 56.954 6.11285 57.4197 6.47952 57.757C6.85352 58.087 7.30452 58.252 7.83252 58.252C8.26518 58.252 8.62452 58.153 8.91052 57.955C9.20385 57.7497 9.40918 57.4783 9.52652 57.141H10.6045C10.4432 57.7203 10.1205 58.1933 9.63652 58.56C9.15252 58.9193 8.55118 59.099 7.83252 59.099C7.26052 59.099 6.74718 58.9707 6.29252 58.714C5.84518 58.4573 5.49318 58.0943 5.23652 57.625C4.97985 57.1483 4.85152 56.5983 4.85152 55.975C4.85152 55.3517 4.97618 54.8053 5.22552 54.336C5.47485 53.8667 5.82318 53.5073 6.27052 53.258C6.72518 53.0013 7.24585 52.873 7.83252 52.873C8.40452 52.873 8.91052 52.9977 9.35052 53.247C9.79052 53.4963 10.1278 53.841 10.3625 54.281C10.6045 54.7137 10.7255 55.205 10.7255 55.755ZM9.69152 55.546C9.69152 55.1647 9.60718 54.8383 9.43852 54.567C9.26985 54.2883 9.03885 54.0793 8.74552 53.94C8.45952 53.7933 8.14052 53.72 7.78852 53.72C7.28252 53.72 6.84985 53.8813 6.49052 54.204C6.13852 54.5267 5.93685 54.974 5.88552 55.546H9.69152ZM11.9478 55.964C11.9478 55.348 12.0725 54.809 12.3218 54.347C12.5711 53.8777 12.9121 53.5147 13.3448 53.258C13.7848 53.0013 14.2725 52.873 14.8078 52.873C15.3358 52.873 15.7941 52.9867 16.1828 53.214C16.5715 53.4413 16.8611 53.7273 17.0518 54.072V52.972H18.0638V59H17.0518V57.878C16.8538 58.23 16.5568 58.5233 16.1608 58.758C15.7721 58.9853 15.3175 59.099 14.7968 59.099C14.2615 59.099 13.7775 58.967 13.3448 58.703C12.9121 58.439 12.5711 58.0687 12.3218 57.592C12.0725 57.1153 11.9478 56.5727 11.9478 55.964ZM17.0518 55.975C17.0518 55.5203 16.9601 55.1243 16.7768 54.787C16.5935 54.4497 16.3441 54.193 16.0288 54.017C15.7208 53.8337 15.3798 53.742 15.0058 53.742C14.6318 53.742 14.2908 53.83 13.9828 54.006C13.6748 54.182 13.4291 54.4387 13.2458 54.776C13.0625 55.1133 12.9708 55.5093 12.9708 55.964C12.9708 56.426 13.0625 56.8293 13.2458 57.174C13.4291 57.5113 13.6748 57.7717 13.9828 57.955C14.2908 58.131 14.6318 58.219 15.0058 58.219C15.3798 58.219 15.7208 58.131 16.0288 57.955C16.3441 57.7717 16.5935 57.5113 16.7768 57.174C16.9601 56.8293 17.0518 56.4297 17.0518 55.975ZM19.6564 55.975C19.6564 55.3517 19.7811 54.809 20.0304 54.347C20.2797 53.8777 20.6244 53.5147 21.0644 53.258C21.5117 53.0013 22.0214 52.873 22.5934 52.873C23.3341 52.873 23.9427 53.0527 24.4194 53.412C24.9034 53.7713 25.2224 54.27 25.3764 54.908H24.2984C24.1957 54.5413 23.9941 54.2517 23.6934 54.039C23.4001 53.8263 23.0334 53.72 22.5934 53.72C22.0214 53.72 21.5594 53.918 21.2074 54.314C20.8554 54.7027 20.6794 55.2563 20.6794 55.975C20.6794 56.701 20.8554 57.262 21.2074 57.658C21.5594 58.054 22.0214 58.252 22.5934 58.252C23.0334 58.252 23.4001 58.1493 23.6934 57.944C23.9867 57.7387 24.1884 57.4453 24.2984 57.064H25.3764C25.2151 57.68 24.8924 58.175 24.4084 58.549C23.9244 58.9157 23.3194 59.099 22.5934 59.099C22.0214 59.099 21.5117 58.9707 21.0644 58.714C20.6244 58.4573 20.2797 58.0943 20.0304 57.625C19.7811 57.1557 19.6564 56.6057 19.6564 55.975ZM28.208 53.797V57.35C28.208 57.6433 28.2704 57.8523 28.395 57.977C28.5197 58.0943 28.736 58.153 29.044 58.153H29.781V59H28.879C28.3217 59 27.9037 58.8717 27.625 58.615C27.3464 58.3583 27.207 57.9367 27.207 57.35V53.797H26.426V52.972H27.207V51.454H28.208V52.972H29.781V53.797H28.208ZM37.4135 52.862C38.1468 52.862 38.7408 53.0857 39.1955 53.533C39.6502 53.973 39.8775 54.611 39.8775 55.447V59H38.8875V55.59C38.8875 54.9887 38.7372 54.5303 38.4365 54.215C38.1358 53.8923 37.7252 53.731 37.2045 53.731C36.6765 53.731 36.2548 53.896 35.9395 54.226C35.6315 54.556 35.4775 55.0363 35.4775 55.667V59H34.4765V52.972H35.4775V53.83C35.6755 53.522 35.9432 53.2837 36.2805 53.115C36.6252 52.9463 37.0028 52.862 37.4135 52.862ZM41.4136 55.964C41.4136 55.348 41.5383 54.809 41.7876 54.347C42.037 53.8777 42.378 53.5147 42.8106 53.258C43.2506 53.0013 43.7383 52.873 44.2736 52.873C44.8016 52.873 45.26 52.9867 45.6486 53.214C46.0373 53.4413 46.327 53.7273 46.5176 54.072V52.972H47.5296V59H46.5176V57.878C46.3196 58.23 46.0226 58.5233 45.6266 58.758C45.238 58.9853 44.7833 59.099 44.2626 59.099C43.7273 59.099 43.2433 58.967 42.8106 58.703C42.378 58.439 42.037 58.0687 41.7876 57.592C41.5383 57.1153 41.4136 56.5727 41.4136 55.964ZM46.5176 55.975C46.5176 55.5203 46.426 55.1243 46.2426 54.787C46.0593 54.4497 45.81 54.193 45.4946 54.017C45.1866 53.8337 44.8456 53.742 44.4716 53.742C44.0976 53.742 43.7566 53.83 43.4486 54.006C43.1406 54.182 42.895 54.4387 42.7116 54.776C42.5283 55.1133 42.4366 55.5093 42.4366 55.964C42.4366 56.426 42.5283 56.8293 42.7116 57.174C42.895 57.5113 43.1406 57.7717 43.4486 57.955C43.7566 58.131 44.0976 58.219 44.4716 58.219C44.8456 58.219 45.1866 58.131 45.4946 57.955C45.81 57.7717 46.0593 57.5113 46.2426 57.174C46.426 56.8293 46.5176 56.4297 46.5176 55.975ZM50.7172 53.797V57.35C50.7172 57.6433 50.7796 57.8523 50.9042 57.977C51.0289 58.0943 51.2452 58.153 51.5532 58.153H52.2902V59H51.3882C50.8309 59 50.4129 58.8717 50.1342 58.615C49.8556 58.3583 49.7162 57.9367 49.7162 57.35V53.797H48.9352V52.972H49.7162V51.454H50.7172V52.972H52.2902V53.797H50.7172ZM54.2951 51.993C54.1044 51.993 53.9431 51.927 53.8111 51.795C53.6791 51.663 53.6131 51.5017 53.6131 51.311C53.6131 51.1203 53.6791 50.959 53.8111 50.827C53.9431 50.695 54.1044 50.629 54.2951 50.629C54.4784 50.629 54.6324 50.695 54.7571 50.827C54.8891 50.959 54.9551 51.1203 54.9551 51.311C54.9551 51.5017 54.8891 51.663 54.7571 51.795C54.6324 51.927 54.4784 51.993 54.2951 51.993ZM54.7791 52.972V59H53.7781V52.972H54.7791ZM59.0041 58.076L60.8741 52.972H61.9411L59.5761 59H58.4101L56.0451 52.972H57.1231L59.0041 58.076ZM68.7011 55.755C68.7011 55.9457 68.6901 56.1473 68.6681 56.36H63.8501C63.8868 56.954 64.0884 57.4197 64.4551 57.757C64.8291 58.087 65.2801 58.252 65.8081 58.252C66.2408 58.252 66.6001 58.153 66.8861 57.955C67.1794 57.7497 67.3848 57.4783 67.5021 57.141H68.5801C68.4188 57.7203 68.0961 58.1933 67.6121 58.56C67.1281 58.9193 66.5268 59.099 65.8081 59.099C65.2361 59.099 64.7228 58.9707 64.2681 58.714C63.8208 58.4573 63.4688 58.0943 63.2121 57.625C62.9554 57.1483 62.8271 56.5983 62.8271 55.975C62.8271 55.3517 62.9518 54.8053 63.2011 54.336C63.4504 53.8667 63.7988 53.5073 64.2461 53.258C64.7008 53.0013 65.2214 52.873 65.8081 52.873C66.3801 52.873 66.8861 52.9977 67.3261 53.247C67.7661 53.4963 68.1034 53.841 68.3381 54.281C68.5801 54.7137 68.7011 55.205 68.7011 55.755ZM67.6671 55.546C67.6671 55.1647 67.5828 54.8383 67.4141 54.567C67.2454 54.2883 67.0144 54.0793 66.7211 53.94C66.4351 53.7933 66.1161 53.72 65.7641 53.72C65.2581 53.72 64.8254 53.8813 64.4661 54.204C64.1141 54.5267 63.9124 54.974 63.8611 55.546H67.6671Z" fill="#00D8FF"/>
</svg>
