<svg width="64" height="48" viewBox="0 0 64 48" fill="none" xmlns="http://www.w3.org/2000/svg">
<path d="M55.0704 27.6285C52.8439 27.64 50.9086 28.1763 49.2884 28.969C48.6936 27.7915 48.0991 26.7425 47.9944 25.973C47.8776 25.0755 47.7379 24.5275 47.8776 23.455C48.0176 22.3825 48.6471 20.8553 48.6354 20.7388C48.6239 20.6223 48.4954 20.0743 47.2131 20.0628C45.9309 20.051 44.8234 20.3075 44.6951 20.6455C44.5669 20.9835 44.3221 21.753 44.1589 22.5455C43.9374 23.7115 41.5944 27.873 40.2539 30.053C39.8224 29.2022 39.4494 28.456 39.3676 27.8615C39.2511 26.964 39.1111 26.416 39.2511 25.3435C39.3911 24.271 40.0206 22.744 40.0089 22.6273C39.9971 22.5108 39.8689 21.9628 38.5866 21.9513C37.3041 21.9395 36.1966 22.196 36.0686 22.534C35.9404 22.8723 35.8004 23.6648 35.5324 24.4343C35.2641 25.2038 32.1516 32.1517 31.3356 33.9467C31.0059 34.6733 30.6599 35.3924 30.2981 36.1035C30.2981 36.1035 30.2864 36.1385 30.2514 36.1967C30.1377 36.4197 30.0212 36.6412 29.9019 36.8612V36.8727C29.7269 37.1877 29.5404 37.479 29.4471 37.479C29.3771 37.479 29.2489 36.6397 29.4704 35.4972C29.9366 33.0842 31.0441 29.3305 31.0326 29.2022C31.0326 29.1322 31.2424 28.4795 30.3099 28.1413C29.4004 27.8033 29.0741 28.3627 28.9924 28.3627C28.9109 28.3627 28.8524 28.561 28.8524 28.561C28.8524 28.561 29.8669 24.341 26.9174 24.341C25.0756 24.341 22.5341 26.3578 21.2751 28.1763C19.8439 28.9551 18.4139 29.7362 16.9851 30.5195C16.2976 30.9043 15.5864 31.289 14.9219 31.6502C14.8751 31.6037 14.8286 31.5453 14.7819 31.4988C11.2146 27.6868 4.61661 24.9937 4.89636 19.8763C5.00136 18.011 5.64237 13.1148 17.5681 7.1695C27.3836 2.3315 35.1944 3.672 36.5466 6.64475C38.4816 10.8883 32.3616 18.7688 22.2194 19.911C18.3491 20.3425 16.3206 18.8503 15.8079 18.2908C15.2716 17.7078 15.1899 17.6728 14.9916 17.7895C14.6654 17.9645 14.8751 18.489 14.9916 18.792C15.2949 19.5845 16.5421 20.9835 18.6521 21.6715C20.5174 22.2775 25.0521 22.6158 30.5429 20.494C36.6864 18.1158 41.4894 11.506 40.0789 5.96875C38.6681 0.349751 29.3421 -1.50375 20.5174 1.632C15.2716 3.4975 9.58262 6.435 5.49086 10.2588C0.629614 14.805 -0.139886 18.757 0.174864 20.4125C1.30586 26.2878 9.40787 30.1115 12.6486 32.9442C12.4854 33.0375 12.3336 33.1192 12.2056 33.1892C10.5851 33.9935 4.40661 37.2225 2.86786 40.6382C1.11936 44.5085 3.14786 47.2832 4.48836 47.656C8.65011 48.8102 12.9284 46.7352 15.2249 43.3077C17.5214 39.8805 17.2416 35.4272 16.1809 33.3872C16.1691 33.364 16.1576 33.3405 16.1341 33.3172C16.5539 33.0725 16.9851 32.816 17.4049 32.5712C18.1763 32.1152 18.9576 31.6759 19.7481 31.2537C19.3516 32.338 19.0601 33.632 18.9204 35.4972C18.7454 37.689 19.6429 40.5332 20.8204 41.6522C21.3451 42.1422 21.9629 42.1537 22.3594 42.1537C23.7349 42.1537 24.3529 41.0112 25.0406 39.659C25.8799 38.0037 26.6376 36.0802 26.6376 36.0802C26.6376 36.0802 25.6934 41.2795 28.2581 41.2795C29.1906 41.2795 30.1349 40.067 30.5546 39.4492V39.4607C30.5546 39.4607 30.5779 39.4257 30.6246 39.3442C30.7179 39.1927 30.7761 39.0992 30.7761 39.0992V39.0762C31.1491 38.4232 31.9886 36.9427 33.2359 34.483C34.8446 31.3122 36.3951 27.3487 36.3951 27.3487C36.3951 27.3487 36.5351 28.3162 37.0129 29.925C37.2929 30.8692 37.8754 31.9067 38.3419 32.9092C37.9689 33.434 37.7356 33.7252 37.7356 33.7252L37.7474 33.737C37.4441 34.1332 37.1179 34.5645 36.7564 34.9845C35.4856 36.4997 33.9704 38.237 33.7604 38.738C33.5154 39.3325 33.5739 39.764 34.0404 40.1137C34.3784 40.3702 34.9844 40.405 35.6024 40.3702C36.7449 40.2885 37.5491 40.0087 37.9454 39.834C38.5634 39.6125 39.2861 39.2742 39.9621 38.773C41.2096 37.852 41.9671 36.5347 41.8974 34.798C41.8624 33.842 41.5476 32.886 41.1629 31.9883C41.2796 31.8253 41.3844 31.662 41.5011 31.4988C43.4711 28.6193 44.9984 25.46 44.9984 25.46C44.9984 25.46 45.1384 26.4275 45.6161 28.0365C45.8494 28.8525 46.3274 29.7385 46.7469 30.601C44.8934 32.105 43.7509 33.8535 43.3429 34.996C42.6086 37.1177 43.1796 38.0735 44.2639 38.295C44.7534 38.4 45.4529 38.1667 45.9659 37.9452C46.6186 37.7355 47.3881 37.3742 48.1226 36.8377C49.3701 35.917 50.5706 34.6345 50.5006 32.8977C50.4656 32.105 50.2559 31.3238 49.9644 30.566C51.5381 29.9135 53.5666 29.552 56.1544 29.855C61.7036 30.5077 62.7994 33.97 62.5894 35.4275C62.3796 36.8845 61.2139 37.6772 60.8294 37.922C60.4444 38.167 60.3164 38.2485 60.3514 38.4232C60.3979 38.6797 60.5844 38.6682 60.9109 38.6215C61.3656 38.54 63.8254 37.444 63.9301 34.7627C64.1051 31.3355 60.8409 27.5935 55.0704 27.6285V27.6285ZM12.2639 42.0605C10.4219 44.0655 7.85736 44.8232 6.74986 44.1822C5.56086 43.4942 6.02712 40.5332 8.28862 38.4117C9.66412 37.1177 11.4361 35.9167 12.6136 35.1825C12.8816 35.0192 13.2781 34.7862 13.7561 34.4947C13.8376 34.448 13.8844 34.4247 13.8844 34.4247L14.1641 34.2497C14.9916 37.2807 14.1991 39.9505 12.2639 42.0605V42.0605ZM25.6701 32.9442C25.0289 34.5065 23.6884 38.505 22.8724 38.2835C22.1729 38.097 21.7414 35.066 22.7324 32.07C23.2336 30.566 24.2944 28.7708 24.9124 28.0715C25.9149 26.9523 27.0224 26.579 27.2904 27.034C27.6286 27.6285 26.0664 31.965 25.6701 32.9442V32.9442ZM36.7331 38.2367C36.4649 38.3767 36.2086 38.47 36.0919 38.4C36.0104 38.3532 36.2086 38.1667 36.2086 38.1667C36.2086 38.1667 37.5959 36.6747 38.1436 35.9985C38.4586 35.6022 38.8314 35.136 39.2279 34.6112V34.7627C39.2279 36.5465 37.5024 37.7472 36.7329 38.2367H36.7331ZM45.2664 36.29C45.0681 36.15 45.1031 35.6837 45.7676 34.2265C46.0241 33.6552 46.6301 32.6995 47.6679 31.7785C47.7844 32.1515 47.8661 32.513 47.8544 32.851C47.8426 35.101 46.2341 35.9402 45.2664 36.29Z" fill="#CD6799"/>
</svg>
