<svg width="50" height="50" viewBox="0 0 50 50" fill="none" xmlns="http://www.w3.org/2000/svg">
<path d="M3.125 3.125H46.875V46.875H3.125V3.125Z" fill="#F5DE19"/>
<path d="M32.5141 37.3047C32.8869 38.0619 33.466 38.6984 34.1848 39.1407C34.9036 39.583 35.7327 39.8132 36.5766 39.8047C38.2797 39.8047 39.3688 38.9532 39.3688 37.7735C39.3688 36.3672 38.25 35.8641 36.375 35.0438L35.3469 34.6032C32.3782 33.3391 30.4094 31.7563 30.4094 28.4094C30.4094 25.3266 32.7532 22.9782 36.4297 22.9782C37.6199 22.8922 38.809 23.1586 39.8488 23.7441C40.8886 24.3295 41.7329 25.2082 42.2766 26.2704L39.0625 28.3251C38.8532 27.7984 38.4887 27.3478 38.0174 27.033C37.5461 26.7182 36.9902 26.5542 36.4235 26.5626C36.1762 26.5378 35.9265 26.5648 35.6903 26.6419C35.4541 26.719 35.2365 26.8444 35.0514 27.0102C34.8664 27.1761 34.7179 27.3786 34.6154 27.605C34.5129 27.8314 34.4588 28.0766 34.4563 28.3251C34.4563 29.5579 35.2204 30.0579 36.9844 30.8251L38.0125 31.2657C41.5063 32.7641 43.4813 34.2907 43.4813 37.7235C43.4813 41.4251 40.5735 43.4532 36.6688 43.4532C35.1474 43.5501 33.6304 43.2047 32.301 42.4586C30.9716 41.7125 29.8865 40.5976 29.1766 39.2485L32.5141 37.3047ZM17.9907 37.661C18.636 38.8063 19.2235 39.7751 20.636 39.7751C21.986 39.7751 22.8391 39.2469 22.8391 37.1922V23.2126H26.95V37.2469C26.95 41.5032 24.45 43.4407 20.811 43.4407C19.5247 43.511 18.2472 43.1904 17.1464 42.5211C16.0457 41.8518 15.1733 40.8651 14.6438 39.6907L17.9907 37.661Z" fill="black"/>
</svg>
