<svg width="38" height="53" viewBox="0 0 38 53" fill="none" xmlns="http://www.w3.org/2000/svg">
<path d="M37.934 10.3894L34.4842 48.614L18.9769 52.866L3.51244 48.6199L0.0661621 10.3894H37.934Z" fill="#E44D26"/>
<path d="M19 49.616L31.5306 46.1801L34.4786 13.5154H19V49.616Z" fill="#F16529"/>
<path d="M12.2937 22.8932H19.0001V18.2043H7.11279L7.2262 19.4623L8.39143 32.3834H19.0001V27.6946H12.727L12.2937 22.8932V22.8932ZM13.3622 34.7279H8.60325L9.26736 42.09L18.9783 44.7562L19.0001 44.7503V39.872L18.9793 39.8774L13.6997 38.4674L13.3622 34.7279Z" fill="#EBEBEB"/>
<path d="M3.58911 0H5.99825V2.35417H8.2021V0H10.6114V7.12901H8.20225V4.74181H5.9984V7.12901H3.58926V0H3.58911ZM13.7793 2.36415H11.6588V0H18.3108V2.36415H16.1889V7.12901H13.7798V2.36415H13.7796H13.7793ZM19.3665 0H21.8785L23.4238 2.50495L24.9675 0H27.4806V7.12901H25.0812V3.59548L23.4238 6.13023H23.3822L21.7237 3.59548V7.12901H19.3665V0ZM28.6795 0H31.0894V4.77264H34.4773V7.12901H28.6794V0H28.6795Z" fill="black"/>
<path d="M18.9838 32.3834H24.8214L24.271 38.4645L18.9836 39.8759V44.754L28.7023 42.09L28.7735 41.2978L29.8877 28.9537L30.0033 27.6946H18.9838V32.3834ZM18.9838 22.8817V22.8932H30.4347L30.5297 21.8393L30.7458 19.4623L30.8591 18.2043H18.9838V22.8819V22.8817Z" fill="white"/>
</svg>
