<svg width="50" height="50" viewBox="0 0 50 50" fill="none" xmlns="http://www.w3.org/2000/svg">
<path d="M25 0C11.193 0 0 11.1928 0 25C0 38.8072 11.193 50 25 50C38.8072 50 50 38.8072 50 25C50 11.1928 38.8072 0 25 0ZM5.37187 25.2605L24.7393 44.6281C14.1045 44.4895 5.51035 35.8957 5.37187 25.2605V25.2605ZM29.3938 44.1375L5.8625 20.6062C7.8582 11.8797 15.6686 5.36855 25 5.36855C31.5229 5.36855 37.3018 8.55078 40.8717 13.4467L38.1535 15.8449C35.2578 11.6922 30.4465 8.97441 25 8.97441C18.0654 8.97441 12.1602 13.3791 9.92793 19.5434L30.457 40.0721C35.4424 38.2668 39.2766 34.0584 40.5605 28.8461H32.0516V25H44.6316C44.6316 34.3316 38.1207 42.142 29.3939 44.1373L29.3938 44.1375Z" fill="#744C9E"/>
</svg>
