<svg width="38" height="54" viewBox="0 0 38 54" fill="none" xmlns="http://www.w3.org/2000/svg">
<g clip-path="url(#clip0_159_315)">
<path d="M18.9769 53.4506L3.51243 49.1575L0.0661621 10.5044H37.934L34.4842 49.1516L18.9769 53.4506V53.4506Z" fill="#264DE4"/>
<path d="M31.5306 46.6906L34.4786 13.6648H19V50.1645L31.5306 46.6906V46.6906Z" fill="#2965F1"/>
<path d="M7.96661 28.0007L8.39143 32.7413H19.0001V28.0007H7.96661ZM7.11279 18.4055L7.54371 23.1462H19.0001V18.4055H7.11279V18.4055ZM19.0001 40.3127L18.9793 40.3182L13.6997 38.8926L13.3622 35.1117H8.60325L9.26736 42.5553L18.9783 45.2509L19.0001 45.245V40.3127Z" fill="#EBEBEB"/>
<path d="M8.97803 0H14.7196V2.40113H11.3792V4.80225H14.7199V7.20323H8.97803V0ZM15.868 0H21.6098V2.08792H18.2692V2.50548H21.6098V7.30773H15.8682V5.11516H19.2088V4.6976H15.8679V0H15.868ZM22.7582 0H28.4999V2.08792H25.1593V2.50548H28.4999V7.30773H22.7582V5.11516H26.0988V4.6976H22.7584V0H22.7582Z" fill="black"/>
<path d="M30.0033 28.0007L30.8591 18.4055H18.9838V23.1462H25.6638L25.2324 28.0007H18.9838V32.7413H24.8214L24.271 38.8896L18.9836 40.3167V45.2487L28.7023 42.5553L28.7735 41.7543L29.8877 29.2737L30.0033 28.0007V28.0007Z" fill="white"/>
</g>
<defs>
<clipPath id="clip0_159_315">
<rect width="38" height="53.5859" fill="white"/>
</clipPath>
</defs>
</svg>
