<svg width="52" height="52" viewBox="0 0 52 52" fill="none" xmlns="http://www.w3.org/2000/svg">
<path d="M16.4368 24.0751C20.7899 25.8164 23.4018 28.4282 25.1431 32.7814C26.8843 28.4282 29.4962 25.8164 33.8494 24.0751C29.4962 22.3338 26.8843 19.7219 25.1431 15.3688C24.1599 17.8267 22.8992 19.7295 21.2041 21.2339C19.8972 22.3939 18.332 23.317 16.4368 24.0751V24.0751Z" fill="#2B1100"/>
<path d="M24.988 32.3525C24.1238 29.9893 22.7986 27.9329 21.1894 26.458C20.3751 25.7116 18.8404 24.6875 17.8543 24.2325C17.6948 24.1589 17.5815 24.0813 17.6026 24.06C17.6237 24.0387 17.9058 23.8859 18.2295 23.7205C20.6558 22.4807 22.5664 20.6247 23.8826 18.2289C24.1672 17.7109 24.8581 16.1765 25.0441 15.6493L25.1431 15.3688L25.3351 15.8792C25.6311 16.6662 26.145 17.7611 26.5459 18.4589C27.9267 20.8621 29.7811 22.5918 32.3633 23.885L32.7408 24.0741L32.5647 24.1654C30.6949 25.1345 29.6642 25.8647 28.5037 27.0422C27.3561 28.2066 26.191 30.0894 25.4477 31.9807C25.3203 32.305 25.216 32.5944 25.216 32.624C25.216 32.6535 25.1965 32.6915 25.1727 32.7083C25.1489 32.7251 25.0657 32.565 24.988 32.3525V32.3525Z" fill="white"/>
<path d="M17.7345 5.7313C17.2953 5.73341 16.8382 5.75593 16.3643 5.8002C12.0309 6.27245 10.3458 7.21695 9.62354 10.0504C10.3458 10.0504 11.7902 10.2866 12.0309 13.3562C12.2717 15.4813 12.0309 17.6064 12.0309 30.3571C13.2346 29.8849 14.1976 29.8849 15.4013 30.3571V19.0232C28.2509 14.0719 26.6662 5.68856 17.7345 5.7313ZM16.4546 7.65968C18.1096 7.63017 19.855 8.04338 21.1791 8.86982C22.3828 9.57819 24.802 13.35 15.4013 16.6619C15.4013 13.3562 14.6791 9.57819 12.2717 9.10594C13.2346 8.16144 14.7995 7.6892 16.4546 7.65968Z" fill="#2B1100"/>
<path d="M17.4194 5.24983C16.9941 5.25197 16.5517 5.27494 16.0928 5.32008C11.8976 5.80156 10.2661 6.76452 9.56689 9.65341C10.2661 9.65341 11.6645 9.89415 11.8976 13.0238C12.1306 15.1904 11.8976 17.3571 11.8976 30.3571C13.0629 29.8756 13.9952 29.8756 15.1605 30.3571V18.8016C27.6006 13.7535 26.0664 5.20625 17.4194 5.24983ZM16.1802 7.21591C17.7826 7.18582 19.4723 7.60711 20.7542 8.44971C21.9195 9.17193 24.2616 13.0175 15.1605 16.3942C15.1605 13.0238 14.4613 9.17193 12.1306 8.69045C13.0629 7.72749 14.5779 7.246 16.1802 7.21591Z" fill="#141414" stroke="#2B1100" stroke-width="0.983936"/>
<path d="M33.3023 41.4539C33.7416 41.4518 34.1986 41.4292 34.6726 41.385C39.0059 40.9127 40.6911 39.9682 41.4133 37.1347C40.6911 37.1347 39.2467 36.8986 39.0059 33.829C38.7652 31.7039 39.0059 29.5788 39.0059 16.8281C37.8022 17.3003 36.8393 17.3003 35.6355 16.8281V28.162C22.786 33.1132 24.3707 41.4966 33.3023 41.4539ZM34.5823 39.5255C32.9272 39.555 31.1818 39.1418 29.8578 38.3154C28.6541 37.607 26.2349 33.8352 35.6355 30.5233C35.6355 33.829 36.3578 37.607 38.7652 38.0792C37.8022 39.0237 36.2374 39.496 34.5823 39.5255V39.5255Z" fill="#2B1100"/>
<path d="M33.6175 41.9354C34.0427 41.9332 34.4852 41.9102 34.944 41.8651C39.1393 41.3836 40.7707 40.4207 41.4699 37.5318C40.7707 37.5318 39.3723 37.291 39.1393 34.1614C38.9062 31.9947 39.1393 29.8281 39.1393 16.8281C37.9739 17.3095 37.0417 17.3095 35.8763 16.8281V28.3836C23.4363 33.4317 24.9705 41.9789 33.6175 41.9354ZM34.8566 39.9693C33.2543 39.9994 31.5645 39.5781 30.2827 38.7355C29.1173 38.0132 26.7752 34.1677 35.8763 30.791C35.8763 34.1614 36.5755 38.0132 38.9062 38.4947C37.9739 39.4577 36.459 39.9392 34.8566 39.9693Z" fill="white" stroke="#2B1100" stroke-width="0.983936"/>
</svg>
