<svg width="64" height="64" viewBox="0 0 64 64" fill="none" xmlns="http://www.w3.org/2000/svg">
<path d="M20.2297 29.6309C25.5875 31.774 28.8021 34.9886 30.9452 40.3463C33.0883 34.9886 36.3029 31.774 41.6607 29.6309C36.3029 27.4878 33.0883 24.2731 30.9452 18.9154C29.7351 21.9406 28.1835 24.2825 26.0973 26.134C24.4887 27.5617 22.5623 28.6978 20.2297 29.6309V29.6309Z" fill="#2B1100"/>
<path d="M30.7542 39.8184C29.6906 36.9099 28.0595 34.3789 26.079 32.5637C25.0767 31.6451 23.1879 30.3847 21.9742 29.8246C21.7779 29.734 21.6385 29.6385 21.6645 29.6122C21.6904 29.586 22.0376 29.398 22.436 29.1945C25.4222 27.6686 27.7737 25.3843 29.3937 22.4356C29.744 21.798 30.5943 19.9095 30.8233 19.2607L30.9451 18.9154L31.1814 19.5436C31.5457 20.5122 32.1782 21.8598 32.6716 22.7186C34.3711 25.6764 36.6534 27.8052 39.8315 29.3969L40.2961 29.6296L40.0793 29.742C37.778 30.9348 36.5095 31.8334 35.0812 33.2826C33.6688 34.7158 32.2348 37.0331 31.32 39.3609C31.1632 39.76 31.0349 40.1162 31.0349 40.1526C31.0349 40.1889 31.0108 40.2356 30.9815 40.2564C30.9522 40.2771 30.8499 40.08 30.7542 39.8184V39.8184Z" fill="white"/>
<path d="M21.8272 7.05391C21.2866 7.0565 20.7241 7.08422 20.1408 7.13871C14.8074 7.71994 12.7334 8.8824 11.8445 12.3698C12.7334 12.3698 14.5111 12.6604 14.8074 16.4384C15.1037 19.0539 14.8074 21.6694 14.8074 37.3626C16.2889 36.7814 17.4741 36.7814 18.9556 37.3626V23.4131C34.7704 17.3193 32.82 7.0013 21.8272 7.05391ZM20.2519 9.4273C22.2889 9.39097 24.4371 9.89955 26.0667 10.9167C27.5482 11.7885 30.5257 16.4308 18.9556 20.507C18.9556 16.4384 18.0667 11.7885 15.1037 11.2073C16.2889 10.0449 18.2149 9.46363 20.2519 9.4273Z" fill="#2B1100"/>
<path d="M21.4393 6.46132C20.9159 6.46396 20.3713 6.49223 19.8066 6.54778C14.6432 7.14038 12.6352 8.32556 11.7747 11.8811C12.6352 11.8811 14.3563 12.1774 14.6432 16.0293C14.93 18.6959 14.6432 21.3626 14.6432 37.3626C16.0775 36.77 17.2249 36.77 18.6591 37.3626V23.1404C33.9699 16.9274 32.0817 6.40768 21.4393 6.46132ZM19.9141 8.88112C21.8862 8.84408 23.9659 9.3626 25.5436 10.3996C26.9779 11.2885 29.8605 16.0215 18.6591 20.1774C18.6591 16.0293 17.7986 11.2885 14.93 10.6959C16.0775 9.51075 17.942 8.91815 19.9141 8.88112Z" fill="#141414" stroke="#2B1100" stroke-width="0.983936"/>
<path d="M40.9877 51.0201C41.5283 51.0175 42.0908 50.9898 42.6741 50.9353C48.0075 50.3541 50.0815 49.1916 50.9704 45.7043C50.0815 45.7043 48.3038 45.4137 48.0075 41.6357C47.7112 39.0202 48.0075 36.4046 48.0075 20.7115C46.526 21.2927 45.3408 21.2927 43.8593 20.7115V34.6609C28.0445 40.7548 29.9949 51.0727 40.9877 51.0201ZM42.563 48.6467C40.526 48.6831 38.3778 48.1745 36.7482 47.1573C35.2667 46.2855 32.2892 41.6433 43.8593 37.5671C43.8593 41.6357 44.7482 46.2855 47.7112 46.8667C46.526 48.0292 44.6001 48.6104 42.563 48.6467V48.6467Z" fill="#2B1100"/>
<path d="M41.3756 51.6127C41.899 51.6101 42.4435 51.5818 43.0083 51.5263C48.1716 50.9337 50.1796 49.7485 51.0402 46.1929C50.1796 46.1929 48.4585 45.8966 48.1716 42.0448C47.8848 39.3781 48.1716 36.7115 48.1716 20.7115C46.7374 21.304 45.59 21.304 44.1557 20.7115V34.9337C28.8449 41.1466 30.7331 51.6664 41.3756 51.6127ZM42.9007 49.1929C40.9286 49.23 38.8489 48.7115 37.2712 47.6744C35.8369 46.7855 32.9543 42.0525 44.1557 37.8966C44.1557 42.0448 45.0162 46.7855 47.8848 47.3781C46.7374 48.5633 44.8728 49.1559 42.9007 49.1929Z" fill="white" stroke="#2B1100" stroke-width="0.983936"/>
</svg>
