<svg width="47" height="67" viewBox="0 0 47 67" fill="none" xmlns="http://www.w3.org/2000/svg">
<path d="M21.492 22.864C21.492 24.328 21.156 25.672 20.484 26.896C19.812 28.096 18.78 29.068 17.388 29.812C15.996 30.556 14.268 30.928 12.204 30.928H8.388V40H2.232V14.728H12.204C14.22 14.728 15.924 15.076 17.316 15.772C18.708 16.468 19.752 17.428 20.448 18.652C21.144 19.876 21.492 21.28 21.492 22.864ZM11.736 26.032C12.912 26.032 13.788 25.756 14.364 25.204C14.94 24.652 15.228 23.872 15.228 22.864C15.228 21.856 14.94 21.076 14.364 20.524C13.788 19.972 12.912 19.696 11.736 19.696H8.388V26.032H11.736Z" fill="white"/>
<path d="M20.484 26.896L22.229 27.8732L22.2331 27.8659L22.2372 27.8585L20.484 26.896ZM17.388 29.812L16.4452 28.0481L17.388 29.812ZM8.388 30.928V28.928H6.388V30.928H8.388ZM8.388 40V42H10.388V40H8.388ZM2.232 40H0.232V42H2.232V40ZM2.232 14.728V12.728H0.232V14.728H2.232ZM17.316 15.772L18.2104 13.9831L17.316 15.772ZM8.388 19.696V17.696H6.388V19.696H8.388ZM8.388 26.032H6.388V28.032H8.388V26.032ZM19.492 22.864C19.492 24.0084 19.233 25.0189 18.7308 25.9335L22.2372 27.8585C23.079 26.3251 23.492 24.6476 23.492 22.864H19.492ZM18.739 25.9188C18.2801 26.7382 17.5511 27.4571 16.4452 28.0481L18.3308 31.5759C20.0089 30.6789 21.3439 29.4538 22.229 27.8732L18.739 25.9188ZM16.4452 28.0481C15.4188 28.5967 14.037 28.928 12.204 28.928V32.928C14.499 32.928 16.5732 32.5153 18.3308 31.5759L16.4452 28.0481ZM12.204 28.928H8.388V32.928H12.204V28.928ZM6.388 30.928V40H10.388V30.928H6.388ZM8.388 38H2.232V42H8.388V38ZM4.232 40V14.728H0.232V40H4.232ZM2.232 16.728H12.204V12.728H2.232V16.728ZM12.204 16.728C13.9981 16.728 15.3769 17.0385 16.4216 17.5609L18.2104 13.9831C16.4711 13.1135 14.4419 12.728 12.204 12.728V16.728ZM16.4216 17.5609C17.498 18.099 18.2297 18.797 18.7094 19.6406L22.1866 17.6634C21.2743 16.059 19.918 14.837 18.2104 13.9831L16.4216 17.5609ZM18.7094 19.6406C19.2135 20.5271 19.492 21.5825 19.492 22.864H23.492C23.492 20.9775 23.0745 19.2249 22.1866 17.6634L18.7094 19.6406ZM11.736 28.032C13.186 28.032 14.6554 27.6948 15.7478 26.648L12.9802 23.76C12.9206 23.8172 12.638 24.032 11.736 24.032V28.032ZM15.7478 26.648C16.8152 25.625 17.228 24.265 17.228 22.864H13.228C13.228 23.479 13.0648 23.679 12.9802 23.76L15.7478 26.648ZM17.228 22.864C17.228 21.463 16.8152 20.103 15.7478 19.08L12.9802 21.968C13.0648 22.049 13.228 22.249 13.228 22.864H17.228ZM15.7478 19.08C14.6554 18.0332 13.186 17.696 11.736 17.696V21.696C12.638 21.696 12.9206 21.9108 12.9802 21.968L15.7478 19.08ZM11.736 17.696H8.388V21.696H11.736V17.696ZM6.388 19.696V26.032H10.388V19.696H6.388ZM8.388 28.032H11.736V24.032H8.388V28.032Z" fill="black"/>
<path d="M25.508 44.136C25.508 42.672 25.844 41.328 26.516 40.104C27.188 38.904 28.22 37.932 29.612 37.188C31.004 36.444 32.732 36.072 34.796 36.072L38.612 36.072L38.612 27L44.768 27L44.768 52.272L34.796 52.272C32.78 52.272 31.076 51.924 29.684 51.228C28.292 50.532 27.248 49.572 26.552 48.348C25.856 47.124 25.508 45.72 25.508 44.136ZM35.264 40.968C34.088 40.968 33.212 41.244 32.636 41.796C32.06 42.348 31.772 43.128 31.772 44.136C31.772 45.144 32.06 45.924 32.636 46.476C33.212 47.028 34.088 47.304 35.264 47.304L38.612 47.304L38.612 40.968L35.264 40.968Z" fill="black"/>
<path d="M26.516 40.104L25.6435 39.6154L25.6394 39.6227L26.516 40.104ZM29.612 37.188L30.0834 38.0699L30.0834 38.0699L29.612 37.188ZM38.612 36.072L38.612 37.072L39.612 37.072L39.612 36.072L38.612 36.072ZM38.612 27L38.612 26L37.612 26L37.612 27L38.612 27ZM44.768 27L45.768 27L45.768 26L44.768 26L44.768 27ZM44.768 52.272L44.768 53.272L45.768 53.272L45.768 52.272L44.768 52.272ZM29.684 51.228L29.2368 52.1224L29.684 51.228ZM38.612 47.304L38.612 48.304L39.612 48.304L39.612 47.304L38.612 47.304ZM38.612 40.968L39.612 40.968L39.612 39.968L38.612 39.968L38.612 40.968ZM26.508 44.136C26.508 42.8318 26.8055 41.6545 27.3926 40.5853L25.6394 39.6227C24.8825 41.0015 24.508 42.5122 24.508 44.136L26.508 44.136ZM27.3885 40.5926C27.9539 39.5829 28.8344 38.7375 30.0834 38.0699L29.1406 36.3061C27.6056 37.1265 26.4221 38.2251 25.6435 39.6154L27.3885 40.5926ZM30.0834 38.0699C31.2926 37.4236 32.8475 37.072 34.796 37.072L34.796 35.072C32.6165 35.072 30.7154 35.4644 29.1406 36.3061L30.0834 38.0699ZM34.796 37.072L38.612 37.072L38.612 35.072L34.796 35.072L34.796 37.072ZM39.612 36.072L39.612 27L37.612 27L37.612 36.072L39.612 36.072ZM38.612 28L44.768 28L44.768 26L38.612 26L38.612 28ZM43.768 27L43.768 52.272L45.768 52.272L45.768 27L43.768 27ZM44.768 51.272L34.796 51.272L34.796 53.272L44.768 53.272L44.768 51.272ZM34.796 51.272C32.891 51.272 31.3495 50.9427 30.1312 50.3336L29.2368 52.1224C30.8025 52.9053 32.669 53.272 34.796 53.272L34.796 51.272ZM30.1312 50.3336C28.897 49.7165 28.0091 48.8875 27.4213 47.8537L25.6827 48.8423C26.4869 50.2565 27.687 51.3475 29.2368 52.1224L30.1312 50.3336ZM27.4213 47.8537C26.8212 46.7984 26.508 45.5688 26.508 44.136L24.508 44.136C24.508 45.8712 24.8908 47.4496 25.6827 48.8423L27.4213 47.8537ZM35.264 39.968C33.951 39.968 32.7783 40.2746 31.9441 41.074L33.3279 42.518C33.6457 42.2134 34.225 41.968 35.264 41.968L35.264 39.968ZM31.9441 41.074C31.1224 41.8615 30.772 42.9315 30.772 44.136L32.772 44.136C32.772 43.3245 32.9976 42.8345 33.3279 42.518L31.9441 41.074ZM30.772 44.136C30.772 45.3405 31.1224 46.4105 31.9441 47.198L33.3279 45.754C32.9976 45.4375 32.772 44.9475 32.772 44.136L30.772 44.136ZM31.9441 47.198C32.7783 47.9974 33.951 48.304 35.264 48.304L35.264 46.304C34.225 46.304 33.6457 46.0586 33.3279 45.754L31.9441 47.198ZM35.264 48.304L38.612 48.304L38.612 46.304L35.264 46.304L35.264 48.304ZM39.612 47.304L39.612 40.968L37.612 40.968L37.612 47.304L39.612 47.304ZM38.612 39.968L35.264 39.968L35.264 41.968L38.612 41.968L38.612 39.968Z" fill="white"/>
</svg>
